<mxfile host="app.diagrams.net" agent="Mozilla/5.0 (Windows NT 10.0; Win64; x64) AppleWebKit/537.36 (KHTML, like Gecko) Chrome/127.0.0.0 Safari/537.36" version="24.7.7">
  <diagram name="Page-1" id="8HPfMJypn7y3y_Vw8mtG">
    <mxGraphModel dx="1938" dy="1442" grid="0" gridSize="10" guides="1" tooltips="1" connect="1" arrows="1" fold="1" page="0" pageScale="1" pageWidth="827" pageHeight="1169" math="0" shadow="0">
      <root>
        <mxCell id="0" />
        <mxCell id="1" parent="0" />
        <mxCell id="title1" value="User" style="text;html=1;whiteSpace=wrap;fontStyle=1;" parent="1" vertex="1">
          <mxGeometry x="60" y="40" width="180" height="30" as="geometry" />
        </mxCell>
        <mxCell id="2" value="&lt;span style=&quot;text-align: left; text-wrap: nowrap;&quot;&gt;id : Integer&lt;/span&gt;&lt;br style=&quot;text-align: left; text-wrap: nowrap;&quot;&gt;&lt;span style=&quot;text-align: left; text-wrap: nowrap;&quot;&gt;username : String&lt;/span&gt;&lt;br style=&quot;text-align: left; text-wrap: nowrap;&quot;&gt;&lt;span style=&quot;text-align: left; text-wrap: nowrap;&quot;&gt;password : String&lt;/span&gt;&lt;br style=&quot;text-align: left; text-wrap: nowrap;&quot;&gt;&lt;span style=&quot;text-align: left; text-wrap: nowrap;&quot;&gt;email : String&lt;/span&gt;&lt;br style=&quot;text-align: left; text-wrap: nowrap;&quot;&gt;&lt;span style=&quot;text-align: left; text-wrap: nowrap;&quot;&gt;role : Enum&lt;/span&gt;&lt;br style=&quot;text-align: left; text-wrap: nowrap;&quot;&gt;&lt;span style=&quot;text-align: left; text-wrap: nowrap;&quot;&gt;first_name : String&lt;/span&gt;&lt;br style=&quot;text-align: left; text-wrap: nowrap;&quot;&gt;&lt;span style=&quot;text-align: left; text-wrap: nowrap;&quot;&gt;last_name : String&lt;/span&gt;&lt;br style=&quot;text-align: left; text-wrap: nowrap;&quot;&gt;&lt;span style=&quot;text-align: left; text-wrap: nowrap;&quot;&gt;phone : String&lt;/span&gt;&lt;br style=&quot;text-align: left; text-wrap: nowrap;&quot;&gt;&lt;span style=&quot;text-align: left; text-wrap: nowrap;&quot;&gt;address : String&lt;/span&gt;&lt;br style=&quot;text-align: left; text-wrap: nowrap;&quot;&gt;&lt;span style=&quot;text-align: left; text-wrap: nowrap;&quot;&gt;postal_code : String&lt;/span&gt;&lt;br style=&quot;text-align: left; text-wrap: nowrap;&quot;&gt;&lt;span style=&quot;text-align: left; text-wrap: nowrap;&quot;&gt;birth_date : Date&lt;/span&gt;&lt;br style=&quot;text-align: left; text-wrap: nowrap;&quot;&gt;&lt;span style=&quot;text-align: left; text-wrap: nowrap;&quot;&gt;is_premium : Boolean&lt;/span&gt;&lt;br style=&quot;text-align: left; text-wrap: nowrap;&quot;&gt;&lt;span style=&quot;text-align: left; text-wrap: nowrap;&quot;&gt;image : String&lt;/span&gt;" style="rounded=1;whiteSpace=wrap;html=1;" parent="1" vertex="1">
          <mxGeometry x="60" y="77" width="180" height="240" as="geometry" />
        </mxCell>
        <mxCell id="title2" value="Location" style="text;html=1;whiteSpace=wrap;fontStyle=1;" parent="1" vertex="1">
          <mxGeometry x="326" y="-70" width="180" height="30" as="geometry" />
        </mxCell>
        <mxCell id="4" value="&#xa;&lt;span style=&quot;color: rgb(0, 0, 0); font-family: Helvetica; font-size: 12px; font-style: normal; font-variant-ligatures: normal; font-variant-caps: normal; font-weight: 400; letter-spacing: normal; orphans: 2; text-align: left; text-indent: 0px; text-transform: none; widows: 2; word-spacing: 0px; -webkit-text-stroke-width: 0px; white-space: nowrap; background-color: rgb(255, 255, 255); text-decoration-thickness: initial; text-decoration-style: initial; text-decoration-color: initial; display: inline !important; float: none;&quot;&gt;id : Integer&lt;/span&gt;&lt;br style=&quot;forced-color-adjust: none; color: rgb(0, 0, 0); font-family: Helvetica; font-size: 12px; font-style: normal; font-variant-ligatures: normal; font-variant-caps: normal; font-weight: 400; letter-spacing: normal; orphans: 2; text-align: left; text-indent: 0px; text-transform: none; widows: 2; word-spacing: 0px; -webkit-text-stroke-width: 0px; white-space: nowrap; background-color: rgb(255, 255, 255); text-decoration-thickness: initial; text-decoration-style: initial; text-decoration-color: initial;&quot;&gt;&lt;span style=&quot;color: rgb(0, 0, 0); font-family: Helvetica; font-size: 12px; font-style: normal; font-variant-ligatures: normal; font-variant-caps: normal; font-weight: 400; letter-spacing: normal; orphans: 2; text-align: left; text-indent: 0px; text-transform: none; widows: 2; word-spacing: 0px; -webkit-text-stroke-width: 0px; white-space: nowrap; background-color: rgb(255, 255, 255); text-decoration-thickness: initial; text-decoration-style: initial; text-decoration-color: initial; display: inline !important; float: none;&quot;&gt;name : String&lt;/span&gt;&lt;br style=&quot;forced-color-adjust: none; color: rgb(0, 0, 0); font-family: Helvetica; font-size: 12px; font-style: normal; font-variant-ligatures: normal; font-variant-caps: normal; font-weight: 400; letter-spacing: normal; orphans: 2; text-align: left; text-indent: 0px; text-transform: none; widows: 2; word-spacing: 0px; -webkit-text-stroke-width: 0px; white-space: nowrap; background-color: rgb(255, 255, 255); text-decoration-thickness: initial; text-decoration-style: initial; text-decoration-color: initial;&quot;&gt;&lt;span style=&quot;color: rgb(0, 0, 0); font-family: Helvetica; font-size: 12px; font-style: normal; font-variant-ligatures: normal; font-variant-caps: normal; font-weight: 400; letter-spacing: normal; orphans: 2; text-align: left; text-indent: 0px; text-transform: none; widows: 2; word-spacing: 0px; -webkit-text-stroke-width: 0px; white-space: nowrap; background-color: rgb(255, 255, 255); text-decoration-thickness: initial; text-decoration-style: initial; text-decoration-color: initial; display: inline !important; float: none;&quot;&gt;address : String&lt;/span&gt;&lt;br style=&quot;forced-color-adjust: none; color: rgb(0, 0, 0); font-family: Helvetica; font-size: 12px; font-style: normal; font-variant-ligatures: normal; font-variant-caps: normal; font-weight: 400; letter-spacing: normal; orphans: 2; text-align: left; text-indent: 0px; text-transform: none; widows: 2; word-spacing: 0px; -webkit-text-stroke-width: 0px; white-space: nowrap; background-color: rgb(255, 255, 255); text-decoration-thickness: initial; text-decoration-style: initial; text-decoration-color: initial;&quot;&gt;&lt;span style=&quot;color: rgb(0, 0, 0); font-family: Helvetica; font-size: 12px; font-style: normal; font-variant-ligatures: normal; font-variant-caps: normal; font-weight: 400; letter-spacing: normal; orphans: 2; text-align: left; text-indent: 0px; text-transform: none; widows: 2; word-spacing: 0px; -webkit-text-stroke-width: 0px; white-space: nowrap; background-color: rgb(255, 255, 255); text-decoration-thickness: initial; text-decoration-style: initial; text-decoration-color: initial; display: inline !important; float: none;&quot;&gt;city : String&lt;/span&gt;&lt;br style=&quot;forced-color-adjust: none; color: rgb(0, 0, 0); font-family: Helvetica; font-size: 12px; font-style: normal; font-variant-ligatures: normal; font-variant-caps: normal; font-weight: 400; letter-spacing: normal; orphans: 2; text-align: left; text-indent: 0px; text-transform: none; widows: 2; word-spacing: 0px; -webkit-text-stroke-width: 0px; white-space: nowrap; background-color: rgb(255, 255, 255); text-decoration-thickness: initial; text-decoration-style: initial; text-decoration-color: initial;&quot;&gt;&lt;span style=&quot;color: rgb(0, 0, 0); font-family: Helvetica; font-size: 12px; font-style: normal; font-variant-ligatures: normal; font-variant-caps: normal; font-weight: 400; letter-spacing: normal; orphans: 2; text-align: left; text-indent: 0px; text-transform: none; widows: 2; word-spacing: 0px; -webkit-text-stroke-width: 0px; white-space: nowrap; background-color: rgb(255, 255, 255); text-decoration-thickness: initial; text-decoration-style: initial; text-decoration-color: initial; display: inline !important; float: none;&quot;&gt;state : Boolean&lt;/span&gt;&lt;br style=&quot;forced-color-adjust: none; color: rgb(0, 0, 0); font-family: Helvetica; font-size: 12px; font-style: normal; font-variant-ligatures: normal; font-variant-caps: normal; font-weight: 400; letter-spacing: normal; orphans: 2; text-align: left; text-indent: 0px; text-transform: none; widows: 2; word-spacing: 0px; -webkit-text-stroke-width: 0px; white-space: nowrap; background-color: rgb(255, 255, 255); text-decoration-thickness: initial; text-decoration-style: initial; text-decoration-color: initial;&quot;&gt;&lt;span style=&quot;color: rgb(0, 0, 0); font-family: Helvetica; font-size: 12px; font-style: normal; font-variant-ligatures: normal; font-variant-caps: normal; font-weight: 400; letter-spacing: normal; orphans: 2; text-align: left; text-indent: 0px; text-transform: none; widows: 2; word-spacing: 0px; -webkit-text-stroke-width: 0px; white-space: nowrap; background-color: rgb(255, 255, 255); text-decoration-thickness: initial; text-decoration-style: initial; text-decoration-color: initial; display: inline !important; float: none;&quot;&gt;postal_code : Integer&lt;/span&gt;&#xa;&#xa;" style="rounded=1;whiteSpace=wrap;html=1;" parent="1" vertex="1">
          <mxGeometry x="317" y="-28" width="180" height="180" as="geometry" />
        </mxCell>
        <mxCell id="title3" value="Workout" style="text;html=1;whiteSpace=wrap;fontStyle=1;" parent="1" vertex="1">
          <mxGeometry x="590" y="-296" width="180" height="30" as="geometry" />
        </mxCell>
        <mxCell id="6" value="&#xa;&lt;span style=&quot;color: rgb(0, 0, 0); font-family: Helvetica; font-size: 12px; font-style: normal; font-variant-ligatures: normal; font-variant-caps: normal; font-weight: 400; letter-spacing: normal; orphans: 2; text-align: left; text-indent: 0px; text-transform: none; widows: 2; word-spacing: 0px; -webkit-text-stroke-width: 0px; white-space: nowrap; background-color: rgb(255, 255, 255); text-decoration-thickness: initial; text-decoration-style: initial; text-decoration-color: initial; display: inline !important; float: none;&quot;&gt;id : Integer&lt;/span&gt;&lt;br style=&quot;forced-color-adjust: none; color: rgb(0, 0, 0); font-family: Helvetica; font-size: 12px; font-style: normal; font-variant-ligatures: normal; font-variant-caps: normal; font-weight: 400; letter-spacing: normal; orphans: 2; text-align: left; text-indent: 0px; text-transform: none; widows: 2; word-spacing: 0px; -webkit-text-stroke-width: 0px; white-space: nowrap; background-color: rgb(255, 255, 255); text-decoration-thickness: initial; text-decoration-style: initial; text-decoration-color: initial;&quot;&gt;&lt;span style=&quot;color: rgb(0, 0, 0); font-family: Helvetica; font-size: 12px; font-style: normal; font-variant-ligatures: normal; font-variant-caps: normal; font-weight: 400; letter-spacing: normal; orphans: 2; text-align: left; text-indent: 0px; text-transform: none; widows: 2; word-spacing: 0px; -webkit-text-stroke-width: 0px; white-space: nowrap; background-color: rgb(255, 255, 255); text-decoration-thickness: initial; text-decoration-style: initial; text-decoration-color: initial; display: inline !important; float: none;&quot;&gt;title : String&lt;/span&gt;&lt;br style=&quot;forced-color-adjust: none; color: rgb(0, 0, 0); font-family: Helvetica; font-size: 12px; font-style: normal; font-variant-ligatures: normal; font-variant-caps: normal; font-weight: 400; letter-spacing: normal; orphans: 2; text-align: left; text-indent: 0px; text-transform: none; widows: 2; word-spacing: 0px; -webkit-text-stroke-width: 0px; white-space: nowrap; background-color: rgb(255, 255, 255); text-decoration-thickness: initial; text-decoration-style: initial; text-decoration-color: initial;&quot;&gt;&lt;span style=&quot;color: rgb(0, 0, 0); font-family: Helvetica; font-size: 12px; font-style: normal; font-variant-ligatures: normal; font-variant-caps: normal; font-weight: 400; letter-spacing: normal; orphans: 2; text-align: left; text-indent: 0px; text-transform: none; widows: 2; word-spacing: 0px; -webkit-text-stroke-width: 0px; white-space: nowrap; background-color: rgb(255, 255, 255); text-decoration-thickness: initial; text-decoration-style: initial; text-decoration-color: initial; display: inline !important; float: none;&quot;&gt;description : String&lt;/span&gt;&lt;br style=&quot;forced-color-adjust: none; color: rgb(0, 0, 0); font-family: Helvetica; font-size: 12px; font-style: normal; font-variant-ligatures: normal; font-variant-caps: normal; font-weight: 400; letter-spacing: normal; orphans: 2; text-align: left; text-indent: 0px; text-transform: none; widows: 2; word-spacing: 0px; -webkit-text-stroke-width: 0px; white-space: nowrap; background-color: rgb(255, 255, 255); text-decoration-thickness: initial; text-decoration-style: initial; text-decoration-color: initial;&quot;&gt;&lt;span style=&quot;color: rgb(0, 0, 0); font-family: Helvetica; font-size: 12px; font-style: normal; font-variant-ligatures: normal; font-variant-caps: normal; font-weight: 400; letter-spacing: normal; orphans: 2; text-align: left; text-indent: 0px; text-transform: none; widows: 2; word-spacing: 0px; -webkit-text-stroke-width: 0px; white-space: nowrap; background-color: rgb(255, 255, 255); text-decoration-thickness: initial; text-decoration-style: initial; text-decoration-color: initial; display: inline !important; float: none;&quot;&gt;duration : Duration&lt;/span&gt;&lt;br style=&quot;forced-color-adjust: none; color: rgb(0, 0, 0); font-family: Helvetica; font-size: 12px; font-style: normal; font-variant-ligatures: normal; font-variant-caps: normal; font-weight: 400; letter-spacing: normal; orphans: 2; text-align: left; text-indent: 0px; text-transform: none; widows: 2; word-spacing: 0px; -webkit-text-stroke-width: 0px; white-space: nowrap; background-color: rgb(255, 255, 255); text-decoration-thickness: initial; text-decoration-style: initial; text-decoration-color: initial;&quot;&gt;&lt;span style=&quot;color: rgb(0, 0, 0); font-family: Helvetica; font-size: 12px; font-style: normal; font-variant-ligatures: normal; font-variant-caps: normal; font-weight: 400; letter-spacing: normal; orphans: 2; text-align: left; text-indent: 0px; text-transform: none; widows: 2; word-spacing: 0px; -webkit-text-stroke-width: 0px; white-space: nowrap; background-color: rgb(255, 255, 255); text-decoration-thickness: initial; text-decoration-style: initial; text-decoration-color: initial; display: inline !important; float: none;&quot;&gt;available : Boolean&lt;/span&gt;&lt;br style=&quot;forced-color-adjust: none; color: rgb(0, 0, 0); font-family: Helvetica; font-size: 12px; font-style: normal; font-variant-ligatures: normal; font-variant-caps: normal; font-weight: 400; letter-spacing: normal; orphans: 2; text-align: left; text-indent: 0px; text-transform: none; widows: 2; word-spacing: 0px; -webkit-text-stroke-width: 0px; white-space: nowrap; background-color: rgb(255, 255, 255); text-decoration-thickness: initial; text-decoration-style: initial; text-decoration-color: initial;&quot;&gt;&lt;span style=&quot;color: rgb(0, 0, 0); font-family: Helvetica; font-size: 12px; font-style: normal; font-variant-ligatures: normal; font-variant-caps: normal; font-weight: 400; letter-spacing: normal; orphans: 2; text-align: left; text-indent: 0px; text-transform: none; widows: 2; word-spacing: 0px; -webkit-text-stroke-width: 0px; white-space: nowrap; background-color: rgb(255, 255, 255); text-decoration-thickness: initial; text-decoration-style: initial; text-decoration-color: initial; display: inline !important; float: none;&quot;&gt;created_at : DateTime&lt;/span&gt;&lt;br style=&quot;forced-color-adjust: none; color: rgb(0, 0, 0); font-family: Helvetica; font-size: 12px; font-style: normal; font-variant-ligatures: normal; font-variant-caps: normal; font-weight: 400; letter-spacing: normal; orphans: 2; text-align: left; text-indent: 0px; text-transform: none; widows: 2; word-spacing: 0px; -webkit-text-stroke-width: 0px; white-space: nowrap; background-color: rgb(255, 255, 255); text-decoration-thickness: initial; text-decoration-style: initial; text-decoration-color: initial;&quot;&gt;&lt;span style=&quot;color: rgb(0, 0, 0); font-family: Helvetica; font-size: 12px; font-style: normal; font-variant-ligatures: normal; font-variant-caps: normal; font-weight: 400; letter-spacing: normal; orphans: 2; text-align: left; text-indent: 0px; text-transform: none; widows: 2; word-spacing: 0px; -webkit-text-stroke-width: 0px; white-space: nowrap; background-color: rgb(255, 255, 255); text-decoration-thickness: initial; text-decoration-style: initial; text-decoration-color: initial; display: inline !important; float: none;&quot;&gt;location : Location&lt;/span&gt;&lt;br style=&quot;forced-color-adjust: none; color: rgb(0, 0, 0); font-family: Helvetica; font-size: 12px; font-style: normal; font-variant-ligatures: normal; font-variant-caps: normal; font-weight: 400; letter-spacing: normal; orphans: 2; text-align: left; text-indent: 0px; text-transform: none; widows: 2; word-spacing: 0px; -webkit-text-stroke-width: 0px; white-space: nowrap; background-color: rgb(255, 255, 255); text-decoration-thickness: initial; text-decoration-style: initial; text-decoration-color: initial;&quot;&gt;&lt;span style=&quot;color: rgb(0, 0, 0); font-family: Helvetica; font-size: 12px; font-style: normal; font-variant-ligatures: normal; font-variant-caps: normal; font-weight: 400; letter-spacing: normal; orphans: 2; text-align: left; text-indent: 0px; text-transform: none; widows: 2; word-spacing: 0px; -webkit-text-stroke-width: 0px; white-space: nowrap; background-color: rgb(255, 255, 255); text-decoration-thickness: initial; text-decoration-style: initial; text-decoration-color: initial; display: inline !important; float: none;&quot;&gt;coaches : List&lt;/span&gt;&#xa;&#xa;" style="rounded=1;whiteSpace=wrap;html=1;" parent="1" vertex="1">
          <mxGeometry x="573" y="-260" width="180" height="240" as="geometry" />
        </mxCell>
        <mxCell id="title4" value="WorkoutImage" style="text;html=1;whiteSpace=wrap;fontStyle=1;" parent="1" vertex="1">
          <mxGeometry x="770" y="45" width="180" height="30" as="geometry" />
        </mxCell>
        <mxCell id="8" value="&#xa;&lt;span style=&quot;color: rgb(0, 0, 0); font-family: Helvetica; font-size: 12px; font-style: normal; font-variant-ligatures: normal; font-variant-caps: normal; font-weight: 400; letter-spacing: normal; orphans: 2; text-align: left; text-indent: 0px; text-transform: none; widows: 2; word-spacing: 0px; -webkit-text-stroke-width: 0px; white-space: nowrap; background-color: rgb(255, 255, 255); text-decoration-thickness: initial; text-decoration-style: initial; text-decoration-color: initial; display: inline !important; float: none;&quot;&gt;id : Integer&lt;/span&gt;&lt;br style=&quot;forced-color-adjust: none; color: rgb(0, 0, 0); font-family: Helvetica; font-size: 12px; font-style: normal; font-variant-ligatures: normal; font-variant-caps: normal; font-weight: 400; letter-spacing: normal; orphans: 2; text-align: left; text-indent: 0px; text-transform: none; widows: 2; word-spacing: 0px; -webkit-text-stroke-width: 0px; white-space: nowrap; background-color: rgb(255, 255, 255); text-decoration-thickness: initial; text-decoration-style: initial; text-decoration-color: initial;&quot;&gt;&lt;span style=&quot;color: rgb(0, 0, 0); font-family: Helvetica; font-size: 12px; font-style: normal; font-variant-ligatures: normal; font-variant-caps: normal; font-weight: 400; letter-spacing: normal; orphans: 2; text-align: left; text-indent: 0px; text-transform: none; widows: 2; word-spacing: 0px; -webkit-text-stroke-width: 0px; white-space: nowrap; background-color: rgb(255, 255, 255); text-decoration-thickness: initial; text-decoration-style: initial; text-decoration-color: initial; display: inline !important; float: none;&quot;&gt;workout : Workout&lt;/span&gt;&lt;br style=&quot;forced-color-adjust: none; color: rgb(0, 0, 0); font-family: Helvetica; font-size: 12px; font-style: normal; font-variant-ligatures: normal; font-variant-caps: normal; font-weight: 400; letter-spacing: normal; orphans: 2; text-align: left; text-indent: 0px; text-transform: none; widows: 2; word-spacing: 0px; -webkit-text-stroke-width: 0px; white-space: nowrap; background-color: rgb(255, 255, 255); text-decoration-thickness: initial; text-decoration-style: initial; text-decoration-color: initial;&quot;&gt;&lt;span style=&quot;color: rgb(0, 0, 0); font-family: Helvetica; font-size: 12px; font-style: normal; font-variant-ligatures: normal; font-variant-caps: normal; font-weight: 400; letter-spacing: normal; orphans: 2; text-align: left; text-indent: 0px; text-transform: none; widows: 2; word-spacing: 0px; -webkit-text-stroke-width: 0px; white-space: nowrap; background-color: rgb(255, 255, 255); text-decoration-thickness: initial; text-decoration-style: initial; text-decoration-color: initial; display: inline !important; float: none;&quot;&gt;image : String&lt;/span&gt;&lt;br style=&quot;forced-color-adjust: none; color: rgb(0, 0, 0); font-family: Helvetica; font-size: 12px; font-style: normal; font-variant-ligatures: normal; font-variant-caps: normal; font-weight: 400; letter-spacing: normal; orphans: 2; text-align: left; text-indent: 0px; text-transform: none; widows: 2; word-spacing: 0px; -webkit-text-stroke-width: 0px; white-space: nowrap; background-color: rgb(255, 255, 255); text-decoration-thickness: initial; text-decoration-style: initial; text-decoration-color: initial;&quot;&gt;&lt;span style=&quot;color: rgb(0, 0, 0); font-family: Helvetica; font-size: 12px; font-style: normal; font-variant-ligatures: normal; font-variant-caps: normal; font-weight: 400; letter-spacing: normal; orphans: 2; text-align: left; text-indent: 0px; text-transform: none; widows: 2; word-spacing: 0px; -webkit-text-stroke-width: 0px; white-space: nowrap; background-color: rgb(255, 255, 255); text-decoration-thickness: initial; text-decoration-style: initial; text-decoration-color: initial; display: inline !important; float: none;&quot;&gt;description : String&lt;/span&gt;&#xa;&#xa;" style="rounded=1;whiteSpace=wrap;html=1;" parent="1" vertex="1">
          <mxGeometry x="779" y="93" width="180" height="120" as="geometry" />
        </mxCell>
        <mxCell id="title5" value="WorkoutSchedule" style="text;html=1;whiteSpace=wrap;fontStyle=1;" parent="1" vertex="1">
          <mxGeometry x="1190" y="-304" width="180" height="30" as="geometry" />
        </mxCell>
        <mxCell id="10" value="&lt;span style=&quot;text-align: left; text-wrap: nowrap;&quot;&gt;id : Integer&lt;/span&gt;&lt;br style=&quot;text-align: left; text-wrap: nowrap;&quot;&gt;&lt;span style=&quot;text-align: left; text-wrap: nowrap;&quot;&gt;workout : Workout&lt;/span&gt;&lt;br style=&quot;text-align: left; text-wrap: nowrap;&quot;&gt;&lt;span style=&quot;text-align: left; text-wrap: nowrap;&quot;&gt;start_time : DateTime&lt;/span&gt;&lt;br style=&quot;text-align: left; text-wrap: nowrap;&quot;&gt;&lt;span style=&quot;text-align: left; text-wrap: nowrap;&quot;&gt;end_time : DateTime&lt;/span&gt;&lt;br style=&quot;text-align: left; text-wrap: nowrap;&quot;&gt;&lt;span style=&quot;text-align: left; text-wrap: nowrap;&quot;&gt;location : Location&lt;/span&gt;&lt;br style=&quot;text-align: left; text-wrap: nowrap;&quot;&gt;&lt;span style=&quot;text-align: left; text-wrap: nowrap;&quot;&gt;coach : Coach&lt;/span&gt;" style="rounded=1;whiteSpace=wrap;html=1;" parent="1" vertex="1">
          <mxGeometry x="1181" y="-264" width="180" height="180" as="geometry" />
        </mxCell>
        <mxCell id="title6" value="Booking" style="text;html=1;whiteSpace=wrap;fontStyle=1;" parent="1" vertex="1">
          <mxGeometry x="1315" y="43" width="180" height="30" as="geometry" />
        </mxCell>
        <mxCell id="12" value="&lt;span style=&quot;text-align: left; text-wrap: nowrap;&quot;&gt;id : Integer&lt;/span&gt;&lt;br style=&quot;text-align: left; text-wrap: nowrap;&quot;&gt;&lt;span style=&quot;text-align: left; text-wrap: nowrap;&quot;&gt;schedule : WorkoutSchedule&lt;/span&gt;&lt;br style=&quot;text-align: left; text-wrap: nowrap;&quot;&gt;&lt;span style=&quot;text-align: left; text-wrap: nowrap;&quot;&gt;participants : List&lt;/span&gt;&lt;br style=&quot;text-align: left; text-wrap: nowrap;&quot;&gt;&lt;span style=&quot;text-align: left; text-wrap: nowrap;&quot;&gt;coach : Coach&lt;/span&gt;&lt;br style=&quot;text-align: left; text-wrap: nowrap;&quot;&gt;&lt;span style=&quot;text-align: left; text-wrap: nowrap;&quot;&gt;location : Location&lt;/span&gt;&lt;br style=&quot;text-align: left; text-wrap: nowrap;&quot;&gt;&lt;span style=&quot;text-align: left; text-wrap: nowrap;&quot;&gt;date_time : DateTime&lt;/span&gt;&lt;br style=&quot;text-align: left; text-wrap: nowrap;&quot;&gt;&lt;span style=&quot;text-align: left; text-wrap: nowrap;&quot;&gt;available : Boolean&lt;/span&gt;&lt;br style=&quot;text-align: left; text-wrap: nowrap;&quot;&gt;&lt;span style=&quot;text-align: left; text-wrap: nowrap;&quot;&gt;expired : Boolean&lt;/span&gt;" style="rounded=1;whiteSpace=wrap;html=1;direction=south;" parent="1" vertex="1">
          <mxGeometry x="1224" y="77" width="243" height="168" as="geometry" />
        </mxCell>
        <mxCell id="title7" value="Coach" style="text;html=1;whiteSpace=wrap;fontStyle=1;" parent="1" vertex="1">
          <mxGeometry x="989" y="43" width="180" height="30" as="geometry" />
        </mxCell>
        <mxCell id="14" value="&#xa;&lt;span style=&quot;color: rgb(0, 0, 0); font-family: Helvetica; font-size: 12px; font-style: normal; font-variant-ligatures: normal; font-variant-caps: normal; font-weight: 400; letter-spacing: normal; orphans: 2; text-align: left; text-indent: 0px; text-transform: none; widows: 2; word-spacing: 0px; -webkit-text-stroke-width: 0px; white-space: nowrap; background-color: rgb(255, 255, 255); text-decoration-thickness: initial; text-decoration-style: initial; text-decoration-color: initial; display: inline !important; float: none;&quot;&gt;id : Integer&lt;/span&gt;&lt;br style=&quot;forced-color-adjust: none; color: rgb(0, 0, 0); font-family: Helvetica; font-size: 12px; font-style: normal; font-variant-ligatures: normal; font-variant-caps: normal; font-weight: 400; letter-spacing: normal; orphans: 2; text-align: left; text-indent: 0px; text-transform: none; widows: 2; word-spacing: 0px; -webkit-text-stroke-width: 0px; white-space: nowrap; background-color: rgb(255, 255, 255); text-decoration-thickness: initial; text-decoration-style: initial; text-decoration-color: initial;&quot;&gt;&lt;span style=&quot;color: rgb(0, 0, 0); font-family: Helvetica; font-size: 12px; font-style: normal; font-variant-ligatures: normal; font-variant-caps: normal; font-weight: 400; letter-spacing: normal; orphans: 2; text-align: left; text-indent: 0px; text-transform: none; widows: 2; word-spacing: 0px; -webkit-text-stroke-width: 0px; white-space: nowrap; background-color: rgb(255, 255, 255); text-decoration-thickness: initial; text-decoration-style: initial; text-decoration-color: initial; display: inline !important; float: none;&quot;&gt;username : String&lt;/span&gt;&lt;br style=&quot;forced-color-adjust: none; color: rgb(0, 0, 0); font-family: Helvetica; font-size: 12px; font-style: normal; font-variant-ligatures: normal; font-variant-caps: normal; font-weight: 400; letter-spacing: normal; orphans: 2; text-align: left; text-indent: 0px; text-transform: none; widows: 2; word-spacing: 0px; -webkit-text-stroke-width: 0px; white-space: nowrap; background-color: rgb(255, 255, 255); text-decoration-thickness: initial; text-decoration-style: initial; text-decoration-color: initial;&quot;&gt;&lt;span style=&quot;color: rgb(0, 0, 0); font-family: Helvetica; font-size: 12px; font-style: normal; font-variant-ligatures: normal; font-variant-caps: normal; font-weight: 400; letter-spacing: normal; orphans: 2; text-align: left; text-indent: 0px; text-transform: none; widows: 2; word-spacing: 0px; -webkit-text-stroke-width: 0px; white-space: nowrap; background-color: rgb(255, 255, 255); text-decoration-thickness: initial; text-decoration-style: initial; text-decoration-color: initial; display: inline !important; float: none;&quot;&gt;user : User&lt;/span&gt;&lt;br style=&quot;forced-color-adjust: none; color: rgb(0, 0, 0); font-family: Helvetica; font-size: 12px; font-style: normal; font-variant-ligatures: normal; font-variant-caps: normal; font-weight: 400; letter-spacing: normal; orphans: 2; text-align: left; text-indent: 0px; text-transform: none; widows: 2; word-spacing: 0px; -webkit-text-stroke-width: 0px; white-space: nowrap; background-color: rgb(255, 255, 255); text-decoration-thickness: initial; text-decoration-style: initial; text-decoration-color: initial;&quot;&gt;&lt;span style=&quot;color: rgb(0, 0, 0); font-family: Helvetica; font-size: 12px; font-style: normal; font-variant-ligatures: normal; font-variant-caps: normal; font-weight: 400; letter-spacing: normal; orphans: 2; text-align: left; text-indent: 0px; text-transform: none; widows: 2; word-spacing: 0px; -webkit-text-stroke-width: 0px; white-space: nowrap; background-color: rgb(255, 255, 255); text-decoration-thickness: initial; text-decoration-style: initial; text-decoration-color: initial; display: inline !important; float: none;&quot;&gt;specialties : List&lt;/span&gt;&lt;br style=&quot;forced-color-adjust: none; color: rgb(0, 0, 0); font-family: Helvetica; font-size: 12px; font-style: normal; font-variant-ligatures: normal; font-variant-caps: normal; font-weight: 400; letter-spacing: normal; orphans: 2; text-align: left; text-indent: 0px; text-transform: none; widows: 2; word-spacing: 0px; -webkit-text-stroke-width: 0px; white-space: nowrap; background-color: rgb(255, 255, 255); text-decoration-thickness: initial; text-decoration-style: initial; text-decoration-color: initial;&quot;&gt;&lt;span style=&quot;color: rgb(0, 0, 0); font-family: Helvetica; font-size: 12px; font-style: normal; font-variant-ligatures: normal; font-variant-caps: normal; font-weight: 400; letter-spacing: normal; orphans: 2; text-align: left; text-indent: 0px; text-transform: none; widows: 2; word-spacing: 0px; -webkit-text-stroke-width: 0px; white-space: nowrap; background-color: rgb(255, 255, 255); text-decoration-thickness: initial; text-decoration-style: initial; text-decoration-color: initial; display: inline !important; float: none;&quot;&gt;available : Boolean&lt;/span&gt;&lt;br style=&quot;forced-color-adjust: none; color: rgb(0, 0, 0); font-family: Helvetica; font-size: 12px; font-style: normal; font-variant-ligatures: normal; font-variant-caps: normal; font-weight: 400; letter-spacing: normal; orphans: 2; text-align: left; text-indent: 0px; text-transform: none; widows: 2; word-spacing: 0px; -webkit-text-stroke-width: 0px; white-space: nowrap; background-color: rgb(255, 255, 255); text-decoration-thickness: initial; text-decoration-style: initial; text-decoration-color: initial;&quot;&gt;&lt;span style=&quot;color: rgb(0, 0, 0); font-family: Helvetica; font-size: 12px; font-style: normal; font-variant-ligatures: normal; font-variant-caps: normal; font-weight: 400; letter-spacing: normal; orphans: 2; text-align: left; text-indent: 0px; text-transform: none; widows: 2; word-spacing: 0px; -webkit-text-stroke-width: 0px; white-space: nowrap; background-color: rgb(255, 255, 255); text-decoration-thickness: initial; text-decoration-style: initial; text-decoration-color: initial; display: inline !important; float: none;&quot;&gt;experience : Integer&lt;/span&gt;&#xa;&#xa;" style="rounded=1;whiteSpace=wrap;html=1;" parent="1" vertex="1">
          <mxGeometry x="989" y="79" width="180" height="134" as="geometry" />
        </mxCell>
        <mxCell id="title8" value="Plan" style="text;html=1;whiteSpace=wrap;fontStyle=1;" parent="1" vertex="1">
          <mxGeometry x="265" y="294" width="180" height="30" as="geometry" />
        </mxCell>
        <mxCell id="16" value="&lt;span style=&quot;text-align: left; text-wrap: nowrap;&quot;&gt;id : Integer&lt;/span&gt;&lt;br style=&quot;text-align: left; text-wrap: nowrap;&quot;&gt;&lt;span style=&quot;text-align: left; text-wrap: nowrap;&quot;&gt;name : String&lt;/span&gt;&lt;br style=&quot;text-align: left; text-wrap: nowrap;&quot;&gt;&lt;span style=&quot;text-align: left; text-wrap: nowrap;&quot;&gt;description : String&lt;/span&gt;&lt;br style=&quot;text-align: left; text-wrap: nowrap;&quot;&gt;&lt;span style=&quot;text-align: left; text-wrap: nowrap;&quot;&gt;price : Integer&lt;/span&gt;&lt;br style=&quot;text-align: left; text-wrap: nowrap;&quot;&gt;&lt;span style=&quot;text-align: left; text-wrap: nowrap;&quot;&gt;duration : Integer&lt;/span&gt;&lt;br style=&quot;text-align: left; text-wrap: nowrap;&quot;&gt;&lt;span style=&quot;text-align: left; text-wrap: nowrap;&quot;&gt;image : String&lt;/span&gt;&lt;br style=&quot;text-align: left; text-wrap: nowrap;&quot;&gt;&lt;span style=&quot;text-align: left; text-wrap: nowrap;&quot;&gt;is_available : Boolean&lt;/span&gt;&lt;br style=&quot;text-align: left; text-wrap: nowrap;&quot;&gt;&lt;span style=&quot;text-align: left; text-wrap: nowrap;&quot;&gt;is_premium : Boolean&lt;/span&gt;" style="rounded=1;whiteSpace=wrap;html=1;" parent="1" vertex="1">
          <mxGeometry x="1181" y="289" width="180" height="154" as="geometry" />
        </mxCell>
        <mxCell id="title9" value="Subscription" style="text;html=1;whiteSpace=wrap;fontStyle=1;" parent="1" vertex="1">
          <mxGeometry x="595" y="259" width="180" height="30" as="geometry" />
        </mxCell>
        <mxCell id="18" value="&#xa;&lt;span style=&quot;color: rgb(0, 0, 0); font-family: Helvetica; font-size: 12px; font-style: normal; font-variant-ligatures: normal; font-variant-caps: normal; font-weight: 400; letter-spacing: normal; orphans: 2; text-align: left; text-indent: 0px; text-transform: none; widows: 2; word-spacing: 0px; -webkit-text-stroke-width: 0px; white-space: nowrap; background-color: rgb(255, 255, 255); text-decoration-thickness: initial; text-decoration-style: initial; text-decoration-color: initial; display: inline !important; float: none;&quot;&gt;id : Integer&lt;/span&gt;&lt;br style=&quot;forced-color-adjust: none; color: rgb(0, 0, 0); font-family: Helvetica; font-size: 12px; font-style: normal; font-variant-ligatures: normal; font-variant-caps: normal; font-weight: 400; letter-spacing: normal; orphans: 2; text-align: left; text-indent: 0px; text-transform: none; widows: 2; word-spacing: 0px; -webkit-text-stroke-width: 0px; white-space: nowrap; background-color: rgb(255, 255, 255); text-decoration-thickness: initial; text-decoration-style: initial; text-decoration-color: initial;&quot;&gt;&lt;span style=&quot;color: rgb(0, 0, 0); font-family: Helvetica; font-size: 12px; font-style: normal; font-variant-ligatures: normal; font-variant-caps: normal; font-weight: 400; letter-spacing: normal; orphans: 2; text-align: left; text-indent: 0px; text-transform: none; widows: 2; word-spacing: 0px; -webkit-text-stroke-width: 0px; white-space: nowrap; background-color: rgb(255, 255, 255); text-decoration-thickness: initial; text-decoration-style: initial; text-decoration-color: initial; display: inline !important; float: none;&quot;&gt;user : User&lt;/span&gt;&lt;br style=&quot;forced-color-adjust: none; color: rgb(0, 0, 0); font-family: Helvetica; font-size: 12px; font-style: normal; font-variant-ligatures: normal; font-variant-caps: normal; font-weight: 400; letter-spacing: normal; orphans: 2; text-align: left; text-indent: 0px; text-transform: none; widows: 2; word-spacing: 0px; -webkit-text-stroke-width: 0px; white-space: nowrap; background-color: rgb(255, 255, 255); text-decoration-thickness: initial; text-decoration-style: initial; text-decoration-color: initial;&quot;&gt;&lt;span style=&quot;color: rgb(0, 0, 0); font-family: Helvetica; font-size: 12px; font-style: normal; font-variant-ligatures: normal; font-variant-caps: normal; font-weight: 400; letter-spacing: normal; orphans: 2; text-align: left; text-indent: 0px; text-transform: none; widows: 2; word-spacing: 0px; -webkit-text-stroke-width: 0px; white-space: nowrap; background-color: rgb(255, 255, 255); text-decoration-thickness: initial; text-decoration-style: initial; text-decoration-color: initial; display: inline !important; float: none;&quot;&gt;plan : Plan&lt;/span&gt;&lt;br style=&quot;forced-color-adjust: none; color: rgb(0, 0, 0); font-family: Helvetica; font-size: 12px; font-style: normal; font-variant-ligatures: normal; font-variant-caps: normal; font-weight: 400; letter-spacing: normal; orphans: 2; text-align: left; text-indent: 0px; text-transform: none; widows: 2; word-spacing: 0px; -webkit-text-stroke-width: 0px; white-space: nowrap; background-color: rgb(255, 255, 255); text-decoration-thickness: initial; text-decoration-style: initial; text-decoration-color: initial;&quot;&gt;&lt;span style=&quot;color: rgb(0, 0, 0); font-family: Helvetica; font-size: 12px; font-style: normal; font-variant-ligatures: normal; font-variant-caps: normal; font-weight: 400; letter-spacing: normal; orphans: 2; text-align: left; text-indent: 0px; text-transform: none; widows: 2; word-spacing: 0px; -webkit-text-stroke-width: 0px; white-space: nowrap; background-color: rgb(255, 255, 255); text-decoration-thickness: initial; text-decoration-style: initial; text-decoration-color: initial; display: inline !important; float: none;&quot;&gt;start_date : Date&lt;/span&gt;&lt;br style=&quot;forced-color-adjust: none; color: rgb(0, 0, 0); font-family: Helvetica; font-size: 12px; font-style: normal; font-variant-ligatures: normal; font-variant-caps: normal; font-weight: 400; letter-spacing: normal; orphans: 2; text-align: left; text-indent: 0px; text-transform: none; widows: 2; word-spacing: 0px; -webkit-text-stroke-width: 0px; white-space: nowrap; background-color: rgb(255, 255, 255); text-decoration-thickness: initial; text-decoration-style: initial; text-decoration-color: initial;&quot;&gt;&lt;span style=&quot;color: rgb(0, 0, 0); font-family: Helvetica; font-size: 12px; font-style: normal; font-variant-ligatures: normal; font-variant-caps: normal; font-weight: 400; letter-spacing: normal; orphans: 2; text-align: left; text-indent: 0px; text-transform: none; widows: 2; word-spacing: 0px; -webkit-text-stroke-width: 0px; white-space: nowrap; background-color: rgb(255, 255, 255); text-decoration-thickness: initial; text-decoration-style: initial; text-decoration-color: initial; display: inline !important; float: none;&quot;&gt;payment_status : String&lt;/span&gt;&#xa;&#xa;" style="rounded=1;whiteSpace=wrap;html=1;" parent="1" vertex="1">
          <mxGeometry x="254" y="329" width="180" height="120" as="geometry" />
        </mxCell>
        <mxCell id="title10" value="Review" style="text;html=1;whiteSpace=wrap;fontStyle=1;" parent="1" vertex="1">
          <mxGeometry x="578" y="45" width="180" height="30" as="geometry" />
        </mxCell>
        <mxCell id="20" value="&#xa;&lt;span style=&quot;color: rgb(0, 0, 0); font-family: Helvetica; font-size: 12px; font-style: normal; font-variant-ligatures: normal; font-variant-caps: normal; font-weight: 400; letter-spacing: normal; orphans: 2; text-align: left; text-indent: 0px; text-transform: none; widows: 2; word-spacing: 0px; -webkit-text-stroke-width: 0px; white-space: nowrap; background-color: rgb(255, 255, 255); text-decoration-thickness: initial; text-decoration-style: initial; text-decoration-color: initial; display: inline !important; float: none;&quot;&gt;id : Integer&lt;/span&gt;&lt;br style=&quot;forced-color-adjust: none; color: rgb(0, 0, 0); font-family: Helvetica; font-size: 12px; font-style: normal; font-variant-ligatures: normal; font-variant-caps: normal; font-weight: 400; letter-spacing: normal; orphans: 2; text-align: left; text-indent: 0px; text-transform: none; widows: 2; word-spacing: 0px; -webkit-text-stroke-width: 0px; white-space: nowrap; background-color: rgb(255, 255, 255); text-decoration-thickness: initial; text-decoration-style: initial; text-decoration-color: initial;&quot;&gt;&lt;span style=&quot;color: rgb(0, 0, 0); font-family: Helvetica; font-size: 12px; font-style: normal; font-variant-ligatures: normal; font-variant-caps: normal; font-weight: 400; letter-spacing: normal; orphans: 2; text-align: left; text-indent: 0px; text-transform: none; widows: 2; word-spacing: 0px; -webkit-text-stroke-width: 0px; white-space: nowrap; background-color: rgb(255, 255, 255); text-decoration-thickness: initial; text-decoration-style: initial; text-decoration-color: initial; display: inline !important; float: none;&quot;&gt;user : User&lt;/span&gt;&lt;br style=&quot;forced-color-adjust: none; color: rgb(0, 0, 0); font-family: Helvetica; font-size: 12px; font-style: normal; font-variant-ligatures: normal; font-variant-caps: normal; font-weight: 400; letter-spacing: normal; orphans: 2; text-align: left; text-indent: 0px; text-transform: none; widows: 2; word-spacing: 0px; -webkit-text-stroke-width: 0px; white-space: nowrap; background-color: rgb(255, 255, 255); text-decoration-thickness: initial; text-decoration-style: initial; text-decoration-color: initial;&quot;&gt;&lt;span style=&quot;color: rgb(0, 0, 0); font-family: Helvetica; font-size: 12px; font-style: normal; font-variant-ligatures: normal; font-variant-caps: normal; font-weight: 400; letter-spacing: normal; orphans: 2; text-align: left; text-indent: 0px; text-transform: none; widows: 2; word-spacing: 0px; -webkit-text-stroke-width: 0px; white-space: nowrap; background-color: rgb(255, 255, 255); text-decoration-thickness: initial; text-decoration-style: initial; text-decoration-color: initial; display: inline !important; float: none;&quot;&gt;workout : Workout&lt;/span&gt;&lt;br style=&quot;forced-color-adjust: none; color: rgb(0, 0, 0); font-family: Helvetica; font-size: 12px; font-style: normal; font-variant-ligatures: normal; font-variant-caps: normal; font-weight: 400; letter-spacing: normal; orphans: 2; text-align: left; text-indent: 0px; text-transform: none; widows: 2; word-spacing: 0px; -webkit-text-stroke-width: 0px; white-space: nowrap; background-color: rgb(255, 255, 255); text-decoration-thickness: initial; text-decoration-style: initial; text-decoration-color: initial;&quot;&gt;&lt;span style=&quot;color: rgb(0, 0, 0); font-family: Helvetica; font-size: 12px; font-style: normal; font-variant-ligatures: normal; font-variant-caps: normal; font-weight: 400; letter-spacing: normal; orphans: 2; text-align: left; text-indent: 0px; text-transform: none; widows: 2; word-spacing: 0px; -webkit-text-stroke-width: 0px; white-space: nowrap; background-color: rgb(255, 255, 255); text-decoration-thickness: initial; text-decoration-style: initial; text-decoration-color: initial; display: inline !important; float: none;&quot;&gt;content : String&lt;/span&gt;&lt;br style=&quot;forced-color-adjust: none; color: rgb(0, 0, 0); font-family: Helvetica; font-size: 12px; font-style: normal; font-variant-ligatures: normal; font-variant-caps: normal; font-weight: 400; letter-spacing: normal; orphans: 2; text-align: left; text-indent: 0px; text-transform: none; widows: 2; word-spacing: 0px; -webkit-text-stroke-width: 0px; white-space: nowrap; background-color: rgb(255, 255, 255); text-decoration-thickness: initial; text-decoration-style: initial; text-decoration-color: initial;&quot;&gt;&lt;span style=&quot;color: rgb(0, 0, 0); font-family: Helvetica; font-size: 12px; font-style: normal; font-variant-ligatures: normal; font-variant-caps: normal; font-weight: 400; letter-spacing: normal; orphans: 2; text-align: left; text-indent: 0px; text-transform: none; widows: 2; word-spacing: 0px; -webkit-text-stroke-width: 0px; white-space: nowrap; background-color: rgb(255, 255, 255); text-decoration-thickness: initial; text-decoration-style: initial; text-decoration-color: initial; display: inline !important; float: none;&quot;&gt;date_time : DateTime&lt;/span&gt;&#xa;&#xa;" style="rounded=1;whiteSpace=wrap;html=1;" parent="1" vertex="1">
          <mxGeometry x="573" y="93" width="180" height="120" as="geometry" />
        </mxCell>
        <mxCell id="title11" value="Role (Enum)" style="text;html=1;whiteSpace=wrap;fontStyle=1;" parent="1" vertex="1">
          <mxGeometry x="80" y="-160" width="180" height="30" as="geometry" />
        </mxCell>
        <mxCell id="22" value="&lt;span style=&quot;text-align: left; text-wrap: nowrap;&quot;&gt;User&lt;/span&gt;&lt;br style=&quot;text-align: left; text-wrap: nowrap;&quot;&gt;&lt;span style=&quot;text-align: left; text-wrap: nowrap;&quot;&gt;Employee&lt;/span&gt;&lt;br style=&quot;text-align: left; text-wrap: nowrap;&quot;&gt;&lt;span style=&quot;text-align: left; text-wrap: nowrap;&quot;&gt;Admin&lt;/span&gt;" style="rounded=1;whiteSpace=wrap;html=1;" parent="1" vertex="1">
          <mxGeometry x="60" y="-120" width="180" height="80" as="geometry" />
        </mxCell>
        <mxCell id="24" value="" style="edgeStyle=orthogonalEdgeStyle;rounded=1;html=1;entryX=0.976;entryY=0.939;entryDx=0;entryDy=0;entryPerimeter=0;" parent="1" source="2" target="12" edge="1">
          <mxGeometry relative="1" as="geometry">
            <Array as="points">
              <mxPoint x="1228" y="241" />
              <mxPoint x="1228" y="241" />
            </Array>
          </mxGeometry>
          <mxPoint as="sourcePoint" />
          <mxPoint as="targetPoint" />
        </mxCell>
        <mxCell id="35" value="1" style="text;html=1;whiteSpace=wrap;" parent="24" vertex="1">
          <mxGeometry y="0.5" relative="1" as="geometry" />
        </mxCell>
        <mxCell id="36" value="0..*" style="text;html=1;whiteSpace=wrap;" parent="24" vertex="1">
          <mxGeometry x="1" y="0.5" relative="1" as="geometry" />
        </mxCell>
        <mxCell id="25" value="" style="edgeStyle=orthogonalEdgeStyle;rounded=1;html=1;exitX=0;exitY=0.75;exitDx=0;exitDy=0;" parent="1" source="12" edge="1">
          <mxGeometry relative="1" as="geometry">
            <mxPoint x="1297" y="72" as="sourcePoint" />
            <mxPoint x="1286" y="-84" as="targetPoint" />
            <Array as="points">
              <mxPoint x="1286" y="77" />
            </Array>
          </mxGeometry>
          <mxPoint as="sourcePoint" />
          <mxPoint as="targetPoint" />
        </mxCell>
        <mxCell id="37" value="1" style="text;html=1;whiteSpace=wrap;" parent="25" vertex="1">
          <mxGeometry y="0.5" relative="1" as="geometry" />
        </mxCell>
        <mxCell id="38" value="0..*" style="text;html=1;whiteSpace=wrap;" parent="25" vertex="1">
          <mxGeometry x="1" y="0.5" relative="1" as="geometry" />
        </mxCell>
        <mxCell id="26" value="" style="edgeStyle=orthogonalEdgeStyle;rounded=1;html=1;" parent="1" source="10" target="6" edge="1">
          <mxGeometry relative="1" as="geometry">
            <Array as="points">
              <mxPoint x="744" y="-196" />
              <mxPoint x="744" y="-196" />
            </Array>
          </mxGeometry>
          <mxPoint as="sourcePoint" />
          <mxPoint as="targetPoint" />
        </mxCell>
        <mxCell id="39" value="1" style="text;html=1;whiteSpace=wrap;" parent="26" vertex="1">
          <mxGeometry y="0.5" relative="1" as="geometry" />
        </mxCell>
        <mxCell id="40" value="0..*" style="text;html=1;whiteSpace=wrap;" parent="26" vertex="1">
          <mxGeometry x="1" y="0.5" relative="1" as="geometry" />
        </mxCell>
        <mxCell id="27" value="" style="edgeStyle=orthogonalEdgeStyle;rounded=1;html=1;" parent="1" source="6" target="8" edge="1">
          <mxGeometry relative="1" as="geometry">
            <Array as="points">
              <mxPoint x="860" y="-111" />
            </Array>
          </mxGeometry>
          <mxPoint as="sourcePoint" />
          <mxPoint as="targetPoint" />
        </mxCell>
        <mxCell id="41" value="1" style="text;html=1;whiteSpace=wrap;" parent="27" vertex="1">
          <mxGeometry y="0.5" relative="1" as="geometry" />
        </mxCell>
        <mxCell id="42" value="0..*" style="text;html=1;whiteSpace=wrap;" parent="27" vertex="1">
          <mxGeometry x="1" y="0.5" relative="1" as="geometry" />
        </mxCell>
        <mxCell id="28" value="" style="edgeStyle=orthogonalEdgeStyle;rounded=1;html=1;" parent="1" source="6" target="14" edge="1">
          <mxGeometry relative="1" as="geometry">
            <Array as="points">
              <mxPoint x="1088" y="-140" />
            </Array>
          </mxGeometry>
          <mxPoint as="sourcePoint" />
          <mxPoint as="targetPoint" />
        </mxCell>
        <mxCell id="43" value="0..*" style="text;html=1;whiteSpace=wrap;" parent="28" vertex="1">
          <mxGeometry y="0.5" relative="1" as="geometry" />
        </mxCell>
        <mxCell id="44" value="0..*" style="text;html=1;whiteSpace=wrap;" parent="28" vertex="1">
          <mxGeometry x="1" y="0.5" relative="1" as="geometry" />
        </mxCell>
        <mxCell id="29" value="" style="edgeStyle=orthogonalEdgeStyle;rounded=1;html=1;exitX=0.939;exitY=0.022;exitDx=0;exitDy=0;exitPerimeter=0;" parent="1" source="14" target="10" edge="1">
          <mxGeometry relative="1" as="geometry">
            <Array as="points">
              <mxPoint x="1217" y="82" />
            </Array>
          </mxGeometry>
          <mxPoint as="sourcePoint" />
          <mxPoint as="targetPoint" />
        </mxCell>
        <mxCell id="45" value="1" style="text;html=1;whiteSpace=wrap;" parent="29" vertex="1">
          <mxGeometry y="0.5" relative="1" as="geometry" />
        </mxCell>
        <mxCell id="46" value="0..*" style="text;html=1;whiteSpace=wrap;" parent="29" vertex="1">
          <mxGeometry x="1" y="0.5" relative="1" as="geometry" />
        </mxCell>
        <mxCell id="30" value="" style="edgeStyle=orthogonalEdgeStyle;rounded=1;html=1;" parent="1" source="18" target="2" edge="1">
          <mxGeometry relative="1" as="geometry" />
          <mxPoint as="sourcePoint" />
          <mxPoint as="targetPoint" />
        </mxCell>
        <mxCell id="47" value="1" style="text;html=1;whiteSpace=wrap;" parent="30" vertex="1">
          <mxGeometry y="0.5" relative="1" as="geometry" />
        </mxCell>
        <mxCell id="48" value="0..1" style="text;html=1;whiteSpace=wrap;" parent="30" vertex="1">
          <mxGeometry x="1" y="0.5" relative="1" as="geometry" />
        </mxCell>
        <mxCell id="31" value="" style="edgeStyle=orthogonalEdgeStyle;rounded=1;html=1;" parent="1" source="18" target="16" edge="1">
          <mxGeometry relative="1" as="geometry">
            <Array as="points">
              <mxPoint x="575" y="352" />
              <mxPoint x="575" y="352" />
            </Array>
          </mxGeometry>
          <mxPoint as="sourcePoint" />
          <mxPoint as="targetPoint" />
        </mxCell>
        <mxCell id="49" value="1" style="text;html=1;whiteSpace=wrap;" parent="31" vertex="1">
          <mxGeometry y="0.5" relative="1" as="geometry" />
        </mxCell>
        <mxCell id="50" value="0..1" style="text;html=1;whiteSpace=wrap;" parent="31" vertex="1">
          <mxGeometry x="1" y="0.5" relative="1" as="geometry" />
        </mxCell>
        <mxCell id="32" value="" style="edgeStyle=orthogonalEdgeStyle;rounded=1;html=1;" parent="1" source="20" target="2" edge="1">
          <mxGeometry relative="1" as="geometry">
            <Array as="points">
              <mxPoint x="485" y="190" />
              <mxPoint x="485" y="190" />
            </Array>
          </mxGeometry>
          <mxPoint as="sourcePoint" />
          <mxPoint as="targetPoint" />
        </mxCell>
        <mxCell id="51" value="1" style="text;html=1;whiteSpace=wrap;" parent="32" vertex="1">
          <mxGeometry y="0.5" relative="1" as="geometry" />
        </mxCell>
        <mxCell id="52" value="0..*" style="text;html=1;whiteSpace=wrap;" parent="32" vertex="1">
          <mxGeometry x="1" y="0.5" relative="1" as="geometry" />
        </mxCell>
        <mxCell id="33" value="" style="edgeStyle=orthogonalEdgeStyle;rounded=1;html=1;" parent="1" source="20" target="6" edge="1">
          <mxGeometry relative="1" as="geometry" />
          <mxPoint as="sourcePoint" />
          <mxPoint as="targetPoint" />
        </mxCell>
        <mxCell id="53" value="1" style="text;html=1;whiteSpace=wrap;" parent="33" vertex="1">
          <mxGeometry y="0.5" relative="1" as="geometry" />
        </mxCell>
        <mxCell id="54" value="0..*" style="text;html=1;whiteSpace=wrap;" parent="33" vertex="1">
          <mxGeometry x="1" y="0.5" relative="1" as="geometry" />
        </mxCell>
        <mxCell id="34" value="" style="edgeStyle=orthogonalEdgeStyle;rounded=1;html=1;" parent="1" source="2" target="22" edge="1">
          <mxGeometry relative="1" as="geometry" />
          <mxPoint as="sourcePoint" />
          <mxPoint as="targetPoint" />
        </mxCell>
        <mxCell id="55" value="1" style="text;html=1;whiteSpace=wrap;" parent="34" vertex="1">
          <mxGeometry y="0.5" relative="1" as="geometry" />
        </mxCell>
        <mxCell id="56" value="1" style="text;html=1;whiteSpace=wrap;" parent="34" vertex="1">
          <mxGeometry x="1" y="0.5" relative="1" as="geometry" />
        </mxCell>
      </root>
    </mxGraphModel>
  </diagram>
</mxfile>
